<svg width="100" height="100" viewBox="0 0 100 100" fill="none" xmlns="http://www.w3.org/2000/svg">
<circle cx="50" cy="50" r="50" fill="#EDCDA8"/>
<path fill-rule="evenodd" clip-rule="evenodd" d="M50 0C43.4339 0 36.9321 1.29329 30.8658 3.80602C24.7995 6.31876 19.2876 10.0017 14.6447 14.6447C10.0017 19.2876 6.31876 24.7996 3.80602 30.8658C1.29329 36.9321 0 43.4339 0 50V100H20V50L50 50L50 0Z" fill="#444444"/>
<path fill-rule="evenodd" clip-rule="evenodd" d="M100 50C100 43.4339 98.7067 36.9321 96.194 30.8658C93.6812 24.7995 89.9983 19.2876 85.3553 14.6447C80.7124 10.0017 75.2005 6.31876 69.1342 3.80602C63.0679 1.29329 56.5661 0 50 0L50 50H80V100H100L100 50Z" fill="#F9E893"/>
</svg>
