<svg width="174" height="178" viewBox="0 0 174 178" fill="none" xmlns="http://www.w3.org/2000/svg">
<g filter="url(#filter0_d_4590_20)">
<path d="M121.265 93.4069C121.265 113.173 107.163 129.196 87.3974 129.196C67.6316 129.196 53.5298 113.173 53.5298 93.4069C53.5298 73.6411 55.6218 57.6177 87.3974 57.6177C119.173 57.6177 121.265 73.6411 121.265 93.4069Z" fill="#EDC596"/>
<path d="M44.1429 65.0999C41.777 70.8191 40.5593 76.9489 40.5593 83.1393V130.288C43.9567 133.212 49.5381 134.674 54.3482 133.699V83.1393H87.6377V36C81.4553 36 75.3334 37.2193 69.6216 39.5883C63.9097 41.9572 58.7199 45.4295 54.3482 49.8068C49.9766 54.1841 46.5088 59.3807 44.1429 65.0999Z" fill="#151515"/>
<path d="M130.208 64.6886C132.55 70.327 133.755 76.3702 133.755 82.4731V128.956C130.393 131.838 124.868 133.279 120.107 132.319V82.4731L87.3975 83.0784L87.6377 36C93.757 36 99.336 37.2021 104.99 39.5376C110.643 41.873 115.78 45.2962 120.107 49.6117C124.434 53.9271 127.866 59.0502 130.208 64.6886Z" fill="#FFEB81"/>
</g>
<defs>
<filter id="filter0_d_4590_20" x="0.559082" y="0" width="173.196" height="178" filterUnits="userSpaceOnUse" color-interpolation-filters="sRGB">
<feFlood flood-opacity="0" result="BackgroundImageFix"/>
<feColorMatrix in="SourceAlpha" type="matrix" values="0 0 0 0 0 0 0 0 0 0 0 0 0 0 0 0 0 0 127 0" result="hardAlpha"/>
<feOffset dy="4"/>
<feGaussianBlur stdDeviation="20"/>
<feComposite in2="hardAlpha" operator="out"/>
<feColorMatrix type="matrix" values="0 0 0 0 0 0 0 0 0 0 0 0 0 0 0 0 0 0 0.25 0"/>
<feBlend mode="normal" in2="BackgroundImageFix" result="effect1_dropShadow_4590_20"/>
<feBlend mode="normal" in="SourceGraphic" in2="effect1_dropShadow_4590_20" result="shape"/>
</filter>
</defs>
</svg>
