<svg width="160" height="160" viewBox="0 0 160 160" fill="none" xmlns="http://www.w3.org/2000/svg">
<circle cx="80" cy="80" r="80" fill="white"/>
<g filter="url(#filter0_d_598_2)">
<circle cx="80" cy="73" r="40" fill="#EDCDA8"/>
<path fill-rule="evenodd" clip-rule="evenodd" d="M80 33C74.7471 33 69.5457 34.0346 64.6927 36.0448C59.8396 38.055 55.4301 41.0014 51.7157 44.7157C48.0014 48.4301 45.055 52.8396 43.0448 57.6927C41.0346 62.5457 40 67.7471 40 73V113H56V73H80V33Z" fill="#444444"/>
<path fill-rule="evenodd" clip-rule="evenodd" d="M120 73C120 67.7471 118.965 62.5457 116.955 57.6927C114.945 52.8396 111.999 48.4301 108.284 44.7157C104.57 41.0014 100.16 38.055 95.3073 36.0448C90.4543 34.0346 85.2529 33 80 33L80 73H104V113H120L120 73Z" fill="#F9E893"/>
</g>
<defs>
<filter id="filter0_d_598_2" x="40" y="33" width="88" height="88" filterUnits="userSpaceOnUse" color-interpolation-filters="sRGB">
<feFlood flood-opacity="0" result="BackgroundImageFix"/>
<feColorMatrix in="SourceAlpha" type="matrix" values="0 0 0 0 0 0 0 0 0 0 0 0 0 0 0 0 0 0 127 0" result="hardAlpha"/>
<feOffset dx="4" dy="4"/>
<feGaussianBlur stdDeviation="2"/>
<feComposite in2="hardAlpha" operator="out"/>
<feColorMatrix type="matrix" values="0 0 0 0 0 0 0 0 0 0 0 0 0 0 0 0 0 0 0.25 0"/>
<feBlend mode="normal" in2="BackgroundImageFix" result="effect1_dropShadow_598_2"/>
<feBlend mode="normal" in="SourceGraphic" in2="effect1_dropShadow_598_2" result="shape"/>
</filter>
</defs>
</svg>
