<svg width="205" height="205" viewBox="0 0 205 205" fill="none" xmlns="http://www.w3.org/2000/svg">
<circle cx="102.5" cy="102.5" r="102.5" fill="#EDCDA8"/>
<path fill-rule="evenodd" clip-rule="evenodd" d="M102.5 0C89.0395 0 75.7108 2.65124 63.2749 7.80235C50.8391 12.9535 39.5396 20.5036 30.0216 30.0216C20.5035 39.5396 12.9535 50.8391 7.80235 63.275C2.65124 75.7108 0 89.0395 0 102.5V205H41V102.5H102.5L102.5 0Z" fill="#444444"/>
<path fill-rule="evenodd" clip-rule="evenodd" d="M205 102.5C205 89.0395 202.349 75.7108 197.198 63.2749C192.047 50.8391 184.496 39.5396 174.978 30.0216C165.46 20.5035 154.161 12.9535 141.725 7.80235C129.289 2.65124 115.96 0 102.5 0L102.5 102.5H164V205H205L205 102.5Z" fill="#F9E893"/>
</svg>
